<?xml version="1.0" encoding="UTF-8" standalone="no"?>
<!-- Created with Inkscape (http://www.inkscape.org/) -->
 
<svg
   xmlns:dc="http://purl.org/dc/elements/1.1/"
   xmlns:cc="http://creativecommons.org/ns#"
   xmlns:rdf="http://www.w3.org/1999/02/22-rdf-syntax-ns#"
   xmlns:svg="http://www.w3.org/2000/svg"
   xmlns="http://www.w3.org/2000/svg"
   xmlns:sodipodi="http://sodipodi.sourceforge.net/DTD/sodipodi-0.dtd"
   xmlns:inkscape="http://www.inkscape.org/namespaces/inkscape"
   width="113.65009mm"
   height="96.249985mm"
   viewBox="0 0 113.65009 96.249985"
   version="1.1"
   id="svg866"
   inkscape:version="0.92.5 (2060ec1f9f, 2020-04-08)"
   sodipodi:docname="logo_orange.svg">
  <defs
     id="defs860" />
  <sodipodi:namedview
     id="base"
     pagecolor="#ffffff"
     bordercolor="#666666"
     borderopacity="1.0"
     inkscape:pageopacity="0.0"
     inkscape:pageshadow="2"
     inkscape:zoom="0.98994949"
     inkscape:cx="113.59703"
     inkscape:cy="126.39205"
     inkscape:document-units="mm"
     inkscape:current-layer="layer1"
     showgrid="false"
     fit-margin-top="0"
     fit-margin-left="0"
     fit-margin-right="0"
     fit-margin-bottom="0"
     inkscape:window-width="1848"
     inkscape:window-height="1136"
     inkscape:window-x="72"
     inkscape:window-y="27"
     inkscape:window-maximized="1" />
  <metadata
     id="metadata863">
    <rdf:RDF>
      <cc:Work
         rdf:about="">
        <dc:format>image/svg+xml</dc:format>
        <dc:type
           rdf:resource="http://purl.org/dc/dcmitype/StillImage" />
        <dc:title></dc:title>
      </cc:Work>
    </rdf:RDF>
  </metadata>
  <g
     inkscape:label="Calque 1"
     inkscape:groupmode="layer"
     id="layer1"
     transform="translate(-42.204658,-6.9702454)">
    <rect
       class="fil7"
       x="97.194763"
       y="25.700243"
       width="3.0899997"
       height="23.489996"
       id="rect88"
       style="clip-rule:evenodd;fill:#ffab00;fill-opacity:1;fill-rule:evenodd;stroke-width:0.01;image-rendering:optimizeQuality;shape-rendering:geometricPrecision;text-rendering:geometricPrecision" />
    <path
       style="clip-rule:evenodd;fill:#ffab00;fill-opacity:1;fill-rule:evenodd;stroke-width:0.03779528;image-rendering:optimizeQuality;shape-rendering:geometricPrecision;text-rendering:geometricPrecision"
       d="m 374.26758,175.37109 c -118.60155,0 -214.75391,96.15041 -214.75391,214.75196 h 429.54297 c 0,-118.60155 -96.1497,-214.75196 -214.78906,-214.75196 z m 71.74023,87.98633 a 57.713379,57.713379 0 0 1 57.71485,57.71485 57.713379,57.713379 0 0 1 -57.71485,57.71289 57.713379,57.713379 0 0 1 -57.71289,-57.71289 57.713379,57.713379 0 0 1 57.71289,-57.71485 z m -147.16406,21.02149 a 47.203033,47.203033 0 0 1 47.20313,47.20312 47.203033,47.203033 0 0 1 -47.20313,47.20313 47.203033,47.203033 0 0 1 -47.20313,-47.20313 47.203033,47.203033 0 0 1 47.20313,-47.20312 z"
       transform="scale(0.26458333)"
       id="path92"
       inkscape:connector-curvature="0" />
    <path
       class="fil13"
       d="m 99.024762,46.40024 c -19.309995,0 -36.369993,9.629998 -46.629992,24.349996 10.249999,-10.049997 24.289997,-16.249997 39.779993,-16.249997 28.629997,0 52.309987,21.169996 56.249987,48.719991 h 7.43 c 0,-31.379993 -25.43999,-56.81999 -56.829988,-56.81999 z"
       id="path94"
       inkscape:connector-curvature="0"
       style="clip-rule:evenodd;fill:#ffab00;fill-opacity:1;fill-rule:evenodd;stroke-width:0.01;image-rendering:optimizeQuality;shape-rendering:geometricPrecision;text-rendering:geometricPrecision" />
    <circle
       class="fil18"
       cx="98.734764"
       cy="18.710243"
       r="11.739998"
       id="circle108"
       style="clip-rule:evenodd;fill:#ffab00;fill-opacity:1;fill-rule:evenodd;stroke-width:0.01;image-rendering:optimizeQuality;shape-rendering:geometricPrecision;text-rendering:geometricPrecision" />
    <circle
       class="fil20"
       cx="98.859344"
       cy="18.040289"
       r="5.4399991"
       id="circle148"
       style="clip-rule:evenodd;fill:#ffab00;fill-opacity:1;fill-rule:evenodd;stroke-width:0.01;image-rendering:optimizeQuality;shape-rendering:geometricPrecision;text-rendering:geometricPrecision" />
    <circle
       class="fil21"
       cx="78.823524"
       cy="87.580673"
       r="5.4896894"
       id="circle150"
       style="clip-rule:evenodd;fill:#ffab00;fill-rule:evenodd;stroke-width:0.01;image-rendering:optimizeQuality;shape-rendering:geometricPrecision;text-rendering:geometricPrecision;fill-opacity:1" />
    <circle
       class="fil21"
       cx="118.49715"
       cy="84.55468"
       r="4.3999996"
       id="circle152"
       style="clip-rule:evenodd;fill:#ffab00;fill-rule:evenodd;stroke-width:0.01;image-rendering:optimizeQuality;shape-rendering:geometricPrecision;text-rendering:geometricPrecision;fill-opacity:1" />
  </g>
</svg>
